<?xml version="1.0" encoding="utf-8"?>
<!-- Generator: Adobe Illustrator 26.5.0, SVG Export Plug-In . SVG Version: 6.00 Build 0)  -->
<svg version="1.1" id="Construção" xmlns="http://www.w3.org/2000/svg" xmlns:xlink="http://www.w3.org/1999/xlink" x="0px"
	 y="0px" viewBox="0 0 2399.99 520" style="enable-background:new 0 0 2399.99 520;" xml:space="preserve">
<style type="text/css">
	.st0{fill:#203E5C;}
</style>
<g>
	<path class="st0" d="M599.93,219.84c-0.1-76.64-62.71-139.44-139.35-139.76c-34.68-0.15-66.43,12.32-90.95,33.08l0-0.01L80,359.99
		l86.62,0c23.08,0,45.42-8.2,63.02-23.13l190.33-161.49v0.01c11-9.86,25.65-15.72,41.67-15.28c31.91,0.87,57.8,27.09,58.28,59.01
		c0.5,33.54-26.53,60.88-59.95,60.88c-21.87,0-41-11.71-51.47-29.2l-128.61,109.2L459.97,360l0.02-0.01
		c50.97-0.01,95.57-27.27,120.04-68l0.01-0.01h-0.01C592.7,270.9,599.97,246.22,599.93,219.84z"/>
	<path d="M1176.45,160v171.48c0.25,15.93,5.65,25.43,16.18,28.52h-96.72c10.79-3.34,16.31-12.84,16.57-28.52v-74.39
		c-0.52-15.93-6.04-25.43-16.57-28.52L1176.45,160z M1118.95,80c6.07,0,12.43,1.39,19.07,4.15c12.71,6.36,19.9,16.72,21.55,31.09
		c0.27,1.66,0.41,3.18,0.41,4.56c0,14.92-6.36,26.26-19.07,33.99c-6.63,4.14-13.68,6.22-21.14,6.22c-14.65,0-25.98-6.22-33.99-18.65
		c-3.87-6.63-5.8-13.81-5.8-21.55c0-14.64,6.22-25.97,18.65-33.99c0.83-0.27,1.38-0.55,1.66-0.83
		C1106.65,81.66,1112.87,80,1118.95,80z"/>
	<path d="M1278.93,160v23.89c17.21-12.33,36.73-19.52,58.57-21.58c2.56-0.25,4.88-0.39,6.94-0.39c24.92,0,41.87,10.28,50.87,30.83
		l11.95-8.86c20.04-14.38,40.72-21.71,62.04-21.97c26.46-0.25,43.93,11.31,52.41,34.68c1.79,5.4,3.08,11.05,3.85,16.96
		c0.77,5.91,1.02,14.52,0.77,25.82v92.1c0.51,15.93,6.03,25.43,16.57,28.52h-96.73c10.79-3.34,16.18-12.84,16.18-28.52V291.4v-57.03
		c0-18.24-6.3-30.31-18.88-36.22c-10.79-5.14-21.07-3.85-30.83,3.85c-2.06,1.8-3.85,3.6-5.4,5.39c-3.6,4.62-5.53,12.72-5.78,24.28
		c0,2.06,0,4.62,0,7.71v92.1c0.51,15.93,6.03,25.43,16.57,28.52h-97.11c11.04-3.34,16.57-12.84,16.57-28.52V291.4v-57.03
		c0-18.24-5.53-31.08-16.57-38.54c-5.65-3.59-11.56-4.88-17.73-3.85c-12.59,2.57-20.42,12.33-23.51,29.29
		c-0.52,3.6-0.77,7.07-0.77,10.41v99.81c0.25,15.93,5.78,25.43,16.57,28.52h-97.11c10.79-3.34,16.31-12.84,16.57-28.52v-74.96
		c-0.52-15.93-6.04-25.43-16.57-28.52L1278.93,160z"/>
	<path class="st0" d="M2144.33,173.68c19.01-8.87,42.96-13.43,71.86-13.69c46.13,0,73.89,18.12,83.27,54.37
		c2.79,10.65,4.18,23.07,4.18,37.26v80.23c0.51,15.72,5.95,25.09,16.35,28.14h-44.86c-16.48,0-26.36-4.43-29.66-13.31
		c-0.51-1.77-0.76-3.29-0.76-4.56c-15.97,13.94-34.85,18.11-56.65,17.86c-21.55,0-36.5-7.22-44.86-21.67
		c-1.27-2.53-2.41-5.07-3.42-7.6c-1.52-4.81-2.41-10.52-2.66-17.11c-0.26-21.54,10.52-39.03,32.32-52.47
		c4.81-2.79,19.39-9.75,43.72-20.91c0.76-0.25,1.39-0.51,1.9-0.76c14.7-6.84,22.94-17.11,24.71-30.8
		c1.52-11.66-2.03-20.4-10.65-26.23c-9.89-6.08-22.05-4.94-36.5,3.42c-14.2,8.36-25.35,24.08-33.46,47.15
		c-0.51,1.02-0.89,1.9-1.14,2.66L2144.33,173.68z M2240.52,244.78c-15.21,11.41-24.71,19.39-28.52,23.95
		c-6.08,8.11-9.89,18.5-11.41,31.18c-1.78,14.96,2.15,25.09,11.79,30.42c7.6,4.56,14.57,3.8,20.91-2.28
		c4.81-4.81,7.22-12.04,7.22-21.67V244.78z"/>
	<path class="st0" d="M2119.65,289.58c-11.98,45.37-42.83,70.42-86.03,70.42c-54.45,0-96.19-39.2-96.19-99.46
		c0-59.89,41.74-100.54,99.09-100.54c42.83,0,77.31,22.5,77.31,58.08c0,5.81,0,68.6-101.27,82.03c9.8,19.96,25.77,31.58,46.1,31.58
		c24.32,0,46.46-17.06,57.71-42.11H2119.65z M2007.86,287.04c65.7-51.54,52.27-108.89,30.13-108.89
		c-17.79,0-34.85,34.85-34.85,75.14C2003.14,265.99,2004.59,277.24,2007.86,287.04z"/>
	<path class="st0" d="M1817.95,195.93c0-11.62,9.08-19.6,20.33-19.6c17.42,0,34.12,20.69,38.84,52.99l40.86-34.71
		c0,0-0.68-0.94-0.94-1.22c-15.97-19.6-49.73-33.39-83.85-33.39c-42.83,0-76.59,21.78-76.59,58.44c0,63.16,102,64.61,102,105.63
		c0,12.7-9.44,19.6-22.87,19.6c-26.13,0-46.82-24.68-51.54-62.07l-42.73,36.26c0,0,1.38,2.13,3.53,4.76
		c20.33,23.23,56.26,37.39,94.37,37.39c52.27,0,80.58-25.77,80.58-60.98C1919.94,232.96,1817.95,234.04,1817.95,195.93z"/>
	<path d="M1045.23,159.99c-29.64,0-48.03,17.26-63.41,51.78v-14.6h0V160l-80,67.88c10.51,3.08,15.9,12.57,16.15,28.46v75.2
		c0,15.64-5.38,25.13-16.15,28.46h96.54c-10.52-3.08-16.03-12.56-16.54-28.46v-14.88h0v-38.47c0-30.77,22.51-94.56,49.53-94.56
		c13.93,0,23.45,16.71,28.33,41.57l0-0.01l39.21-33.3C1085.38,170.12,1068.12,159.99,1045.23,159.99z"/>
	<path d="M1732.83,289.58C1720.85,334.95,1690,360,1646.8,360c-54.45,0-96.19-39.2-96.19-99.46c0-59.89,41.74-100.54,99.09-100.54
		c42.83,0,77.31,22.5,77.31,58.08c0,5.81,0,68.6-101.27,82.03c9.8,19.96,25.77,31.58,46.1,31.58c24.32,0,46.46-17.06,57.71-42.11
		H1732.83z M1621.03,287.04c65.7-51.54,52.27-108.89,30.13-108.89c-17.79,0-34.85,34.85-34.85,75.14
		C1616.31,265.99,1617.77,277.24,1621.03,287.04z"/>
	<path d="M811.74,160c-25.77,0-50.45,12.34-66.05,39.92v-1.68h0v-4.78V160l0,0v0l-2.16,1.83L680,215.68v0l-9.94,8.42v0.06
		l-6.68,5.67c10.65,3.12,16.17,12.65,16.59,28.55l0.03,37.45v115.83c-0.03,15.57-5.41,25.01-16.15,28.33h98.36
		c-10.52-3.08-16.03-12.56-16.54-28.46l0-27.33l0.02-0.01V353.8c8.35,3.99,19.23,6.17,34.12,6.17
		c60.61,0,105.61-39.56,105.61-107.06C885.41,200.28,858.19,160,811.74,160z M767.82,343.64c-8.71,0-16.33-2.18-22.14-5.81v-42
		v-17.39h0.07l-0.02-19.36c6.92-49.09,22.49-68.6,40.96-68.6c25.04,0,33.03,35.57,33.03,68.96
		C819.72,309.89,801.58,343.64,767.82,343.64z"/>
</g>
</svg>
