<?xml version="1.0" encoding="UTF-8"?><svg id="b" xmlns="http://www.w3.org/2000/svg" viewBox="0 0 479.72 91.19"><defs><style>.d{fill:#00e8e6;}.e{fill:#fff;}.f{fill:#0ce9e7;}.g{fill:#0ae9e7;}</style></defs><g id="c"><g><path class="d" d="M479.7,.02c0,29.85-.01,59.7,.02,89.55,0,1.21-.26,1.58-1.54,1.57-9.07-.06-18.14-.05-27.22,0-1.02,0-1.29-.29-1.24-1.27,.08-1.51,.08-3.03,0-4.54-.05-.93,.27-1.12,1.15-1.11,6.63,.04,13.27,0,19.9,.04,1.03,0,1.33-.2,1.33-1.29-.04-24.91-.04-49.82,0-74.73,0-1.16-.38-1.34-1.41-1.33-6.59,.04-13.19,0-19.78,.04-.95,0-1.22-.25-1.19-1.19,.07-1.91,0-3.82,0-5.74h29.98Z"/><path class="g" d="M30.01,.02c0,1.91-.07,3.83,0,5.73,.03,.94-.22,1.21-1.18,1.2-6.63-.04-13.27,0-19.9-.05-1.09,0-1.29,.31-1.29,1.33,.03,24.9,.03,49.81,0,74.71,0,1.05,.25,1.32,1.31,1.31,6.55-.05,13.11,0,19.66-.06,1.2-.01,1.49,.34,1.41,1.47-.1,1.43-.09,2.87,0,4.3,.06,.98-.3,1.18-1.21,1.17-9.11-.03-18.22-.02-27.33-.02-.48,0-.96,.01-1.44,.02C.03,61.16,.04,31.17,0,1.19,0,.1,.32,0,1.26,0,10.84,.03,20.43,.02,30.01,.02Z"/><path class="f" d="M228.82,.26c0-.08,.01-.16,.02-.23,2.4,0,4.8,0,7.2,0-.07,.08-.14,.17-.21,.25-.29,.23-.63,.34-1,.35-1.67,.04-3.35,.04-5.02,0-.36-.01-.72-.07-.98-.36Z"/><path class="e" d="M43.06,45.45c-.59-9.79-1.16-19.57-1.79-29.36-.07-1.02,.19-1.28,1.19-1.24,2.04,.08,4.08,.05,6.11,.01,.65-.01,.88,.15,.91,.85,.45,10.79,.94,21.58,1.42,32.37,.28,6.25,.56,12.5,.87,18.75,.02,.43-.26,1.12,.66,1.08,.81-.03,.57-.63,.61-1.05,1.02-9.34,2.03-18.69,3.03-28.04,.82-7.64,1.65-15.28,2.42-22.93,.09-.84,.34-1.04,1.15-1.04,3.52,.04,7.03,.04,10.55,0,.74,0,1.03,.16,1.11,.96,1.39,13.03,2.83,26.05,4.25,39.08,.44,4,.84,8,1.28,12,.05,.43-.09,1.03,.69,1,.77-.02,.49-.62,.5-.97,.48-9.87,.94-19.74,1.39-29.62,.33-7.21,.66-14.41,.96-21.62,.03-.72,.31-.84,.94-.84,2.16,.03,4.32,.05,6.47,0,.81-.02,.88,.27,.83,.98-.87,14.16-1.71,28.32-2.55,42.48-.34,5.61-.71,11.21-1.01,16.82-.05,.94-.36,1.17-1.27,1.16-3.96-.05-7.91-.04-11.87,0-.79,0-1.07-.17-1.15-1.02-1.69-16.05-3.41-32.1-5.13-48.15-.02-.2-.04-.4-.07-.59-.06-.42,.02-.91-.68-.87-.64,.03-.52,.51-.56,.87-.59,5.43-1.16,10.86-1.74,16.28-.92,8.59-1.85,17.19-2.77,25.78-.24,2.26-.51,4.51-.71,6.77-.06,.69-.25,.94-1,.93-4.08-.04-8.15-.04-12.23,0-.81,0-.97-.27-1.02-1.02-.58-9.95-1.19-19.89-1.8-29.83,0,0,0,0,0,0Z"/><path class="e" d="M438.48,14.88c-1.68,2.36-3.22,4.53-4.76,6.69-4.24,5.94-8.46,11.88-12.72,17.8-.43,.6-.46,1.01-.1,1.67,6.26,11.32,12.48,22.66,18.71,34,.19,.34,.37,.69,.54,1.03-.27,.38-.61,.2-.9,.2-2.88,.02-5.76-.03-8.63,.03-.87,.02-1.34-.23-1.76-1.01-4.48-8.3-9-16.58-13.52-24.86-.75-1.38-1.27-1.41-2.2-.11-2.04,2.85-4.06,5.72-6.12,8.56-.43,.59-.58,1.17-.58,1.88,.02,4.82,0,9.64,.03,14.47,0,.82-.18,1.1-1.05,1.08-2.64-.06-5.27-.04-7.91,0-.72,0-1.04-.09-1.04-.95,.03-19.85,.03-39.69,0-59.54,0-.73,.18-.96,.93-.95,2.68,.04,5.36,.06,8.03,0,.89-.02,1.03,.3,1.03,1.09-.03,8.65-.02,17.29,0,25.94,0,.41-.34,1.03,.32,1.23,.65,.2,.89-.37,1.17-.79,6-8.74,12.02-17.47,17.98-26.24,.64-.95,1.3-1.27,2.42-1.24,3.27,.08,6.55,.03,10.11,.03Z"/><path class="e" d="M138.67,45.59c0,9.85-.01,19.69,.02,29.54,0,.95-.24,1.19-1.18,1.18-12.11-.03-24.22-.03-36.33,0-.92,0-1.24-.19-1.2-1.17,.08-2.35,.07-4.7,0-7.05-.03-.9,.22-1.12,1.12-1.12,8.75,.04,17.51,0,26.26,.05,1.05,0,1.32-.24,1.3-1.3-.07-4.82-.06-9.65,0-14.47,.01-.96-.19-1.27-1.22-1.26-6.56,.05-13.11,0-19.67,.05-.99,0-1.28-.24-1.25-1.24,.08-2.27,.07-4.54,0-6.81-.03-.92,.21-1.19,1.16-1.19,6.6,.04,13.19,0,19.79,.05,.94,0,1.19-.23,1.18-1.17-.05-4.82-.05-9.65,0-14.47,0-.85-.24-1.04-1.06-1.04-8.79,.03-17.59,0-26.38,.04-1.01,0-1.27-.27-1.23-1.25,.07-2.35,.05-4.7,0-7.05-.01-.74,.11-1.04,.96-1.04,12.27,.03,24.54,.03,36.81,0,.9,0,.92,.39,.92,1.07-.02,9.89-.01,19.77-.01,29.66Z"/><path class="e" d="M350.89,46.38c.13,3.56-.24,7.91,.23,12.24,.14,1.27,.4,2.52,.82,3.72,1.14,3.24,3.45,5.06,6.83,5.58,2.11,.32,4.21,.32,6.33,.04,3.93-.51,6.35-2.72,7.39-6.49,.52-1.89,.77-3.83,.72-5.79-.02-.72,.12-1.06,.97-1.05,2.76,.05,5.52,.03,8.27,.01,.49,0,.84,.02,.82,.68-.19,6.72-1.8,12.86-7.21,17.43-2.37,2-5.14,3.21-8.16,3.84-3.64,.76-7.31,.8-10.96,.13-8.11-1.48-13.6-6.91-15.35-15.11-.48-2.23-.72-4.48-.72-6.76,0-6.3-.02-12.59,0-18.89,.01-3.04,.42-6.04,1.41-8.93,2.31-6.73,6.93-10.94,13.91-12.48,3.67-.81,7.39-.83,11.08-.14,8.37,1.56,13.93,7.35,15.47,16,.31,1.73,.47,3.47,.53,5.23,.02,.7-.21,.87-.88,.87-2.72-.03-5.44-.05-8.15,0-.9,.02-1.06-.33-1.03-1.11,.06-1.64-.16-3.26-.5-4.86-.94-4.49-3.34-6.76-7.89-7.41-2.19-.31-4.39-.27-6.56,.16-4.11,.81-6.1,3.62-6.87,7.49-.38,1.92-.51,3.87-.5,5.82,.01,2.99,0,5.98,0,9.75Z"/><path class="e" d="M245.31,45.55c0-9.8,.02-19.6-.03-29.41,0-1.09,.3-1.32,1.32-1.29,2.52,.08,5.04,.08,7.55,0,.99-.03,1.16,.3,1.16,1.2-.03,16.54,0,33.07-.05,49.61,0,1.15,.35,1.34,1.39,1.34,8.39-.04,16.78,0,25.17-.04,.93,0,1.23,.2,1.2,1.17-.07,2.43-.05,4.86,0,7.29,.01,.69-.2,.88-.88,.88-11.99-.02-23.98-.03-35.96,.01-.99,0-.87-.51-.87-1.11,0-9.88,0-19.76,0-29.65Z"/><path class="d" d="M228.82,.26c2.33,0,4.67,0,7,.01-1.3,4.22-2.58,8.44-3.9,12.65-8.05,25.51-16.12,51.02-24.12,76.54-.42,1.35-.98,1.83-2.37,1.7-1.39-.13-2.8-.1-4.19,0-1.1,.07-1.1-.31-.82-1.19,3.43-10.78,6.82-21.56,10.23-32.34,5.94-18.83,11.88-37.66,17.83-56.49,.09-.3,.24-.59,.36-.88Z"/><path class="d" d="M.27,45.46c0-14.59,.01-29.17-.03-43.76C.24,.56,.53,.23,1.7,.24c8.91,.05,17.82,.04,26.74,0,1.02,0,1.45,.21,1.36,1.31-.1,1.23-.12,2.48,0,3.7,.13,1.29-.4,1.49-1.55,1.49-6.43-.05-12.87,.01-19.3-.06-1.26-.01-1.51,.36-1.5,1.54,.03,24.91,.03,49.81,0,74.72,0,1.19,.27,1.55,1.51,1.53,6.51-.07,13.03-.01,19.54-.05,.96,0,1.37,.21,1.3,1.25-.09,1.35-.09,2.71,0,4.06,.06,1-.35,1.18-1.24,1.18-8.99-.03-17.98-.04-26.97,0-1.08,0-1.33-.32-1.32-1.35,.04-10.48,.02-20.96,.02-31.44,0-4.22,0-8.45,0-12.67Z"/><path class="e" d="M190.71,57.92c-.26-6.36-3.65-10.71-9.75-12.53-.4-.12-.99,0-1.04-.74-.05-.78,.56-.77,1-.95,3.93-1.65,6.41-4.5,7.26-8.7,.34-1.69,.39-3.4,.31-5.12-.35-7.12-4.26-12.03-11.12-14.01-2.28-.66-4.62-.96-6.99-.96-6.59-.02-13.19,0-19.78-.04-.96,0-1.18,.25-1.18,1.19,.04,9.8,.02,19.61,.02,29.41s0,19.85-.02,29.77c0,.82,.19,1.08,1.05,1.07,7.39-.04,14.79-.01,22.18-.04,2.78-.01,5.5-.41,8.12-1.37,4.79-1.76,7.95-5.04,9.32-9.98,.64-2.29,.71-4.64,.61-6.99Zm-30.81-33.74c4.38,.14,8.78-.3,13.15,.26,3.26,.42,4.9,2.07,5.37,5.3,.24,1.66,.24,3.34-.03,5-.57,3.58-2.4,5.33-6.04,5.65-4.14,.36-8.3,.09-12.45,.18-.71,.02-.63-.39-.63-.84,0-2.43,0-4.86,0-7.28,0-2.47,0-4.93,0-7.4,0-.43-.1-.88,.62-.85Zm20.73,37.1c-.51,3.59-2.73,5.52-6.84,5.64-4.59,.14-9.18,.04-13.77,.08-.72,0-.74-.33-.74-.87,.02-2.59,0-5.17,0-7.76s.02-5.18-.02-7.76c0-.67,.16-.88,.86-.88,4.31,.04,8.62,.02,12.93,.03,.36,0,.72,.03,1.08,.06,4.14,.33,6.09,2.24,6.58,6.33,.2,1.72,.16,3.42-.09,5.12Z"/><path class="e" d="M329.8,46.36c0-3.61,0-6.44,0-9.27,0-2.24-.13-4.46-.52-6.66-1.48-8.33-6.77-14.09-14.65-15.83-3.99-.88-8.02-.9-12.01,0-6.72,1.5-11.27,5.53-13.64,11.99-1.04,2.83-1.53,5.78-1.56,8.78-.06,6.81-.1,13.63,0,20.44,.08,4.93,1.24,9.59,4.12,13.74,6.93,10,24.17,9.26,31.03,3.27,4.21-3.67,6.25-8.36,6.94-13.74,.57-4.48,.15-9,.28-12.71Zm-10.3,12.6c-.09,.75-.25,1.49-.43,2.22-.97,4.01-3.47,6.31-7.61,6.81-2.2,.27-4.39,.28-6.56-.13-3.88-.72-6.2-3.28-7.01-7.63-.28-1.53-.46-3.07-.46-4.63,0-6.73-.01-13.46,0-20.19,0-1.87,.23-3.73,.7-5.55,1.04-3.97,3.4-6.08,7.48-6.67,2.19-.32,4.38-.3,6.56,.08,3.59,.63,5.8,2.8,6.79,6.26,.5,1.77,.74,3.58,.77,5.42,0,.52,.02,1.04,.02,1.55,0,3.03,0,6.05,0,9.9-.15,3.64,.27,8.1-.26,12.55Z"/></g></g></svg>